<svg width="416" height="549" viewBox="0 0 416 549" fill="none" xmlns="http://www.w3.org/2000/svg">
<path fill-rule="evenodd" clip-rule="evenodd" d="M112.83 500.373C162.063 482.442 210.184 532.569 294.794 547.123C379.403 561.676 440.212 445.099 406.565 384.822C372.919 324.545 379.403 245.909 401.608 171.166C423.811 96.4241 395.421 51.9329 365.25 33.7183C335.079 15.5041 305.471 9.79549 258.248 13.2218C211.025 16.6482 161.82 31.551 115.789 56.2405C69.7565 80.9297 18.0069 135.643 12.6746 170.727C7.34316 205.811 28.6462 209.242 32.4576 264.734C36.269 320.227 -16.2204 394.424 5.12328 444.753C26.4669 495.082 63.5976 518.303 112.83 500.373Z" fill="#EFC329"/>
<path d="M192.156 86.4881C190.174 89.6109 188.055 92.6425 185.983 95.6975C186.249 95.9633 186.7 95.8333 187.235 95.964C187.507 96.0306 187.789 95.9548 188.056 96.0183C188.39 96.0976 188.667 96.5398 188.98 96.7021C191.375 97.9465 193.248 100.268 196.163 100.49C197.845 100.619 199.789 100.322 201.47 100.11C203.419 99.8651 204.97 99.133 206.787 98.4388C208.533 97.7717 210.269 96.7728 212.073 96.3114C212.444 96.2164 215.167 95.9939 214.955 95.1825C214.719 94.2813 214.106 93.6281 214.082 92.686C214.047 91.294 213.504 89.7456 213.25 88.3876C213.08 87.4793 213.088 85.1824 211.708 85.8043C211.353 85.9643 210.673 86.0431 210.277 86.0431H200.161C197.706 86.0431 195.279 85.2615 192.805 85.2615C192.531 85.2615 192.531 85.3825 192.531 85.6406L192.531 85.6523C192.531 86.0515 192.518 85.9169 192.156 86.4881Z" fill="#D1AC9D"/>
<path d="M185.774 96.0074C187.911 92.8475 190.107 89.7165 192.156 86.4881C192.518 85.9169 192.531 86.0515 192.531 85.6523C192.531 85.3861 192.527 85.2615 192.805 85.2615C195.279 85.2615 197.706 86.0431 200.161 86.0431C203.533 86.0431 206.905 86.0431 210.277 86.0431C210.673 86.0431 211.353 85.9643 211.708 85.8043C213.088 85.1824 213.08 87.4793 213.25 88.3876C213.504 89.7456 214.047 91.294 214.082 92.686C214.106 93.6281 214.719 94.2813 214.955 95.1825C215.167 95.9939 212.444 96.2164 212.073 96.3114C210.269 96.7728 208.533 97.7717 206.787 98.4388C204.97 99.133 203.419 99.8651 201.47 100.11C199.789 100.322 197.845 100.619 196.163 100.49C193.248 100.268 191.375 97.9465 188.98 96.7021C188.667 96.5398 188.39 96.0976 188.056 96.0183C187.789 95.9548 187.507 96.0306 187.235 95.964C186.507 95.7862 185.935 96.0907 185.774 95.2259" stroke="#D1AC9D" stroke-linecap="square"/>
<path d="M109.391 528.615C110.398 529.167 111.856 529.47 113.064 529.62C117.491 530.073 121.918 530.376 126.395 530.676C135.5 531.231 144.656 531.582 153.811 531.783C172.123 532.185 190.485 532.137 208.796 532.791C211.814 532.89 214.782 533.241 217.75 533.193C256.083 532.086 278.268 532.086 307.093 531.18C343.616 530.022 382.351 523.029 301.057 517.949C283.701 516.842 265.34 516.791 247.934 515.834C232.54 514.979 217.096 514.628 201.652 514.628C188.221 514.628 174.789 514.829 161.357 514.979C147.322 515.18 131.073 512.414 118.145 519.659C116.988 520.313 115.881 521.018 114.724 521.57C113.114 522.326 111.404 522.779 109.995 523.986C107.228 526.251 107.832 527.76 109.391 528.615Z" fill="url(#paint0_linear_9_270)"/>
<path opacity="0.56" d="M109.403 528.612C110.409 529.167 111.868 529.47 113.076 529.62C117.502 530.073 121.929 530.373 126.407 530.676C135.512 531.228 144.668 531.582 153.823 531.783C172.135 532.185 190.496 532.134 208.808 532.788C211.826 532.89 214.794 533.241 217.762 533.19C256.095 532.086 278.28 532.086 307.105 531.18C343.627 530.022 382.363 523.028 301.069 517.946C283.713 516.839 265.351 516.791 247.946 515.834C232.552 514.979 217.108 514.628 201.664 514.628C188.233 514.628 174.801 514.829 161.369 514.979C147.334 515.18 131.085 512.414 118.156 519.659C116.999 520.313 115.893 521.015 114.736 521.57C113.126 522.323 111.415 522.776 110.007 523.986C107.24 526.248 107.844 527.757 109.403 528.612Z" fill="url(#paint1_linear_9_270)"/>
<path d="M153.011 391.21C154.822 355.34 150.999 318.764 151.351 282.639C150.144 270.112 152.106 257.383 157.036 245.61C157.338 244.856 157.69 244.151 158.293 243.598C160.205 241.837 163.425 242.793 165.94 243.698C190.137 252.553 218.66 250.44 240.694 237.963C245.071 243.849 246.278 251.044 247.385 258.037C249.146 269.307 251.007 280.577 251.51 291.897V291.948C251.611 294.363 251.661 296.826 251.611 299.242C251.309 313.379 248.24 327.267 245.826 341.203C244.266 350.257 242.908 359.414 242.757 368.622C242.657 376.167 243.864 383.011 241.952 390.406C237.274 408.57 237.274 428.341 235.312 446.856C233.199 466.729 231.086 486.552 229.376 506.476C229.325 507.28 229.225 508.036 229.174 508.84C228.068 509.092 210.813 512.615 210.813 508.69C209.454 470.102 208.046 431.513 206.688 392.873C206.084 376.62 207.442 321.731 202.814 306.286C200.903 306.436 198.991 306.637 197.079 306.79C186.565 357.854 174.14 447.36 163.626 498.427C162.72 502.903 161.563 507.784 158.243 510.653C154.923 513.569 148.685 512.714 147.679 508.237C150.647 469.294 150.999 430.303 153.011 391.21Z" fill="#516277"/>
<path d="M175.879 36.3145C175.879 21.5732 188.758 9.59918 204.604 9.59918C220.451 9.59918 233.329 21.5732 233.329 36.3145C233.329 38.7798 232.926 41.1446 232.272 43.4085C232.272 44.0122 232.222 44.5657 232.222 45.2198C232.323 50.5527 232.071 55.8859 231.015 61.1684C229.002 71.3818 223.72 80.8904 213.709 86.7267C210.389 88.6385 206.566 90.1479 202.542 90.0975C197.159 90.0474 192.279 87.28 188.557 83.9092C176.282 72.5891 175.175 55.6342 176.081 39.6352C175.98 38.478 175.879 37.4216 175.879 36.3145Z" fill="#D1AC9D"/>
<path d="M210.289 509.242C217.684 508.69 225.18 508.99 232.474 510.098C238.108 513.821 244.296 516.941 250.835 519.254C252.747 519.959 254.709 520.613 256.118 521.921C257.526 523.23 258.08 525.495 256.772 526.854C255.615 528.06 253.602 528.21 251.842 528.21C238.159 528.363 224.475 527.304 210.993 525.141C210.188 524.991 209.333 524.841 208.73 524.337C208.277 523.935 208.025 523.332 207.874 522.776C206.516 518.198 207.422 513.167 210.289 509.242Z" fill="#3D322B"/>
<path d="M147.042 505.117C153.683 505.822 160.222 507.181 166.46 509.293C170.686 513.47 175.566 517.142 180.848 520.211C182.407 521.117 184.017 521.972 184.973 523.38C185.929 524.79 186.029 526.803 184.57 527.859C183.313 528.765 181.502 528.561 179.942 528.312C167.819 526.299 155.947 523.281 144.527 519.254C143.823 519.002 143.118 518.75 142.716 518.198C142.364 517.745 142.314 517.241 142.263 516.689C141.961 512.462 143.722 508.135 147.042 505.117Z" fill="#3D322B"/>
<path d="M230.188 286.011C231.043 284.099 232.2 282.338 233.508 280.628C235.319 278.213 237.382 275.999 238.941 273.483C239.998 271.773 240.853 269.911 242.563 268.654C243.267 268.1 244.223 267.697 245.179 267.848C246.034 268 246.688 268.603 247.091 269.308C247.443 270.012 247.594 270.767 247.644 271.521L247.694 273.483C246.135 279.873 244.626 286.263 243.066 292.602C242.764 293.859 242.362 295.269 241.104 295.971C239.998 296.577 238.589 296.424 237.331 296.223C234.715 295.821 231.898 295.317 230.289 293.406C228.528 291.345 229.081 288.426 230.188 286.011Z" fill="#D1AC9D"/>
<path d="M220.43 268.2C221.989 273.18 223.951 278.061 226.366 282.538C230.843 290.688 241.106 293.859 250.764 292.551C250.865 293.256 250.613 294.411 250.613 294.864C250.412 297.279 249.959 299.695 249.255 302.059C248.752 303.67 248.098 305.329 246.589 306.286C244.879 307.393 242.564 307.342 240.452 307.141C236.779 306.838 233.057 306.286 229.636 305.128C224.957 303.517 220.832 300.802 217.16 297.783C214.393 295.518 211.827 293.004 210.067 290.034C208.357 287.117 207.551 283.847 206.998 280.576C206.294 276.501 206.043 272.325 206.696 268.25C210.972 268.3 215.701 268.3 220.43 268.2Z" fill="#516277"/>
<path d="M248.043 292.299C246.132 292.602 244.17 292.602 242.258 292.35C238.486 291.897 234.813 290.439 231.996 288.123C229.581 286.161 227.821 283.645 226.261 281.029C223.847 276.954 222.035 272.627 220.778 268.15C221.18 268.15 221.633 268.15 222.035 268.099C222.689 270.313 223.394 272.476 224.148 274.64C226.06 279.872 229.531 286.161 235.065 289.281C239.693 291.948 245.327 291.444 250.76 291.243C251.515 291.192 251.766 292.35 250.961 292.449C250.911 292.449 250.861 292.449 250.81 292.449C250.76 292.248 250.71 292.047 250.609 291.948C250.056 291.645 248.647 292.197 248.043 292.299Z" fill="#4B5B6B"/>
<path d="M226.374 282.538C223.909 278.061 221.947 273.231 220.438 268.2C220.538 268.2 220.639 268.2 220.79 268.2C222.048 272.677 223.859 277.004 226.273 281.079C227.783 283.645 229.594 286.161 232.008 288.173C234.825 290.487 238.498 291.948 242.271 292.398C244.182 292.65 246.144 292.602 248.056 292.35C248.659 292.248 250.068 291.696 250.571 292.098C250.672 292.197 250.773 292.398 250.773 292.602C241.164 293.808 230.851 290.688 226.374 282.538Z" fill="#516277"/>
<path d="M145.632 244.454C145.733 223.021 145.783 201.638 145.884 180.206C145.934 162.144 150.512 143.025 153.43 125.215C155.039 115.404 156.951 111.983 161.881 103.279C162.585 102.022 162.686 101.217 169.226 99.3049C170.634 98.9022 174.005 97.1414 175.715 97.4432C184.217 98.7513 192.869 95.8333 201.371 97.1414C210.376 98.4999 225.468 94.3743 232.46 99.9589C241.917 107.455 242.571 125.366 244.081 137.038C246.093 152.786 250.922 168.785 251.778 184.684C252.532 198.62 252.935 212.556 253.236 226.492C253.387 233.737 256.305 259.044 249.111 263.874C244.886 266.691 233.617 267.899 221.996 268.201C221.594 268.201 221.141 268.251 220.739 268.251C220.638 268.251 220.538 268.251 220.387 268.251C215.658 268.352 210.929 268.352 206.653 268.251C200.315 268.15 194.982 267.848 192.064 267.597C178.532 266.49 165.151 263.974 151.87 261.207C149.506 260.704 146.89 260.05 145.632 258.088C144.727 256.679 145.632 246.114 145.632 244.454Z" fill="#E5171B"/>
<path d="M242.578 112.587C239.107 108.663 235.183 104.889 230.606 103.581C226.028 102.273 220.746 104.134 218.934 109.065C217.325 113.593 218.985 119.027 220.846 123.706C225.625 135.68 231.662 146.949 237.699 158.169C244.088 169.992 250.426 181.815 256.815 193.639C258.727 197.211 260.839 200.984 263.958 202.946C269.442 206.418 282.018 202.041 282.974 194.494C283.829 187.702 274.774 170.998 272.208 164.508C264.713 145.641 255.507 127.227 242.578 112.587Z" fill="black"/>
<path d="M204.852 100.562C204.399 100.009 203.947 99.3043 204.198 98.6502C204.399 98.1471 205.003 97.8957 205.506 97.6944C207.921 96.6881 210.386 95.7823 212.901 94.9774C213.706 94.7259 214.662 94.4745 215.416 94.8769C215.819 95.0782 216.07 95.4304 216.322 95.7322C217.881 97.7949 228.667 96.5876 230.226 98.6502C235.866 102.927 223.26 98.6502 221.503 102.927C221.503 103.38 221.101 103.782 220.749 104.084C219.089 105.694 217.479 107.404 216.02 109.165C214.963 110.423 213.706 113.442 211.643 112.134C210.034 111.128 209.48 108.058 208.675 106.499C207.619 104.486 206.311 102.474 204.852 100.562Z" fill="black"/>
<path d="M196.388 108.36C196.087 109.668 195.935 110.976 195.433 112.234C195.382 112.385 195.281 112.586 195.131 112.687C194.627 113.039 193.973 112.486 193.672 112.033C190.854 108.109 187.534 104.436 183.762 101.166C183.007 100.512 167.317 100.763 166.864 99.958C166.411 99.1026 174.163 96.4363 182.051 96.4363C182.504 95.9836 183.208 95.7823 183.862 95.581C185.27 95.1786 186.73 94.776 188.138 94.3737C188.993 94.1219 189.899 93.8705 190.804 93.971C191.609 94.0716 192.364 94.4742 193.068 94.8768C194.778 95.8828 199.608 97.9457 199.759 99.958C199.859 101.115 198.35 102.826 197.897 103.933C197.193 105.342 196.741 106.851 196.388 108.36Z" fill="black"/>
<path d="M208.095 107.555C208.146 107.353 208.196 107.203 208.095 107.001C208.045 106.85 207.894 106.75 207.693 106.649C205.63 105.341 202.964 104.787 200.499 105.14C200.197 105.19 199.895 105.24 199.644 105.391C199.342 105.592 199.191 105.844 199.09 106.146C198.537 107.404 198.638 108.863 199.09 110.171C199.543 111.479 200.348 112.636 201.153 113.793C201.254 113.944 201.354 114.095 201.555 114.196C201.706 114.296 201.908 114.296 202.109 114.296C205.53 114.095 207.391 110.02 208.095 107.555Z" fill="black"/>
<path d="M252.453 204.024C229.651 206.873 223.835 206.702 201.033 204.024C200.089 210.019 204.351 216.63 201.034 226.25C227.72 229.88 224.439 228.419 251.126 224.592C251.126 218.62 254.244 210.346 252.453 204.024Z" fill="black" stroke="black" stroke-width="3"/>
<path d="M250.462 245.159C220.738 248.036 206.391 247.863 176.667 245.159C175.436 251.213 180.992 255.682 176.667 265.396C211.456 269.06 207.712 269.26 242.501 265.396C242.501 258.761 248.14 250.799 250.462 245.159Z" fill="black" stroke="black" stroke-width="3"/>
<path d="M124.91 185.638C118.571 204.857 113.792 224.479 110.623 244.301C110.321 246.163 110.07 248.226 111.076 249.886C112.384 251.949 115.201 252.754 117.766 253.408C133.009 257.181 148.252 260.954 163.545 264.728C169.028 266.086 174.612 267.445 180.297 267.696C181.303 267.747 182.409 267.747 183.315 267.244C184.321 266.69 184.824 265.684 185.227 264.728C190.106 254.112 194.433 243.295 198.105 232.327C200.168 226.189 202.029 220.001 203.79 213.762C205.752 206.668 204.142 203.147 196.495 201.688C188.547 200.128 180.749 197.512 172.902 195.549C168.877 194.544 125.363 184.28 124.91 185.638Z" fill="#E2E2E2"/>
<path d="M151.289 220.356C151.187 220.255 151.085 220.153 150.983 220.051C151.187 220.102 151.289 220.204 151.289 220.356Z" fill="white"/>
<path d="M148.917 228.907C152.539 229.46 156.01 230.366 159.481 231.573C160.135 231.825 161.041 231.171 160.94 230.466C160.437 225.435 159.934 220.454 159.431 215.423C159.38 214.97 159.129 214.668 158.777 214.467C158.274 213.612 156.865 213.461 156.664 214.668C156.312 216.832 153.746 219.146 152.489 220.907C151.03 222.97 149.621 225.133 148.162 227.246C147.861 227.749 148.212 228.806 148.917 228.907ZM157.419 218.391C157.771 221.863 158.123 225.335 158.475 228.806C156.06 228.051 153.646 227.448 151.181 226.995C152.489 225.033 153.847 223.07 155.205 221.159C155.859 220.253 156.714 219.347 157.419 218.391Z" fill="white"/>
<path d="M134.572 256.931C134.824 254.818 135.729 252.856 136.383 250.843C136.635 250.038 136.886 249.183 137.49 248.478C138.345 247.522 139.854 247.019 141.213 247.321C142.571 247.623 143.678 248.63 143.929 249.837L144.231 251.849C143.627 253.409 143.879 255.12 144.633 256.629C145.388 258.138 146.646 259.396 148.054 260.402C148.859 261.006 149.815 261.761 149.513 262.616C149.312 263.27 148.507 263.622 147.803 263.824C146.193 264.276 144.533 264.578 142.873 264.578C140.559 264.629 138.043 264.176 136.433 262.716C134.773 261.308 134.321 259.044 134.572 256.931Z" fill="#D1AC9D"/>
<path d="M152.831 212.053C160.528 181.263 169.03 150.623 178.185 120.184C179.242 116.612 180.349 112.99 179.996 109.317C179.644 105.644 177.582 101.921 173.809 100.311C169.382 98.4498 163.848 100.211 160.478 103.38C157.107 106.55 155.397 110.776 153.888 114.952C140.003 152.836 134.369 193.086 137.387 232.832C137.689 236.907 138.092 241.133 136.733 245.057C136.029 247.12 134.922 249.636 136.633 251.196C138.645 253.057 143.324 252.956 144.883 251.095C146.895 248.63 146.392 240.982 146.996 237.863C148.606 229.26 150.719 220.657 152.831 212.053Z" fill="black"/>
<path d="M235.203 128.388C212.401 131.237 199.618 131.066 176.817 128.388C175.872 134.383 174.733 137.822 172.504 143.979C199.191 147.609 214.155 147.807 240.842 143.979C238.246 138.113 236.994 134.71 235.203 128.388Z" fill="black" stroke="black" stroke-width="3"/>
<path d="M177.628 121.369C168.058 120.676 163.339 118.642 155.787 112.803C153.244 118.247 151.936 122.748 149.614 129.383C158.272 136.677 160.318 139.212 171.699 139.564C174.166 132.987 175.99 127.517 177.628 121.369Z" fill="#E5171B"/>
<path d="M241.506 112.464C232.922 119.962 230.836 120.26 219.773 122.818C222.055 128.381 225.799 135.188 229.231 141.325C242.402 138.774 243.955 137.935 253.78 128.719C250.515 122.498 245.117 117.725 241.506 112.464Z" fill="#E5171B"/>
<path d="M167.764 155.586C158.193 154.893 153.474 152.858 145.922 147.02C143.38 152.463 143.643 159.903 141.321 166.537C149.614 169.855 150.453 173.429 161.834 173.781C164.301 167.203 166.125 161.734 167.764 155.586Z" fill="#E5171B"/>
<path d="M156.837 191.544C148.989 192.616 144.996 191.496 138.419 187.189C136.742 192.954 137.34 201.038 136.676 207.341C144.235 209.307 144.025 212.078 153.324 210.344C154.858 203.488 155.948 197.829 156.837 191.544Z" fill="#E5171B"/>
<path d="M149.946 223.265C145.276 225.088 140.406 225.493 137.008 221.938C135.462 227.733 138.804 235.601 137.795 241.823C141.996 242.994 141.6 245.722 147.179 243.108C148.749 236.261 148.807 229.492 149.946 223.265Z" fill="#E5171B"/>
<path d="M244.823 161.561C222.021 164.41 189.997 164.239 167.196 161.561C166.252 167.557 164.449 173.649 162.22 179.807C188.907 183.436 222.78 183.634 249.467 179.807C246.871 173.941 246.614 167.883 244.823 161.561Z" fill="black" stroke="black" stroke-width="3"/>
<path d="M227.079 42.9054C222.451 39.8364 215.107 39.7356 210.982 43.7103C210.881 43.7607 210.831 43.8612 210.831 43.9617C208.265 43.9116 205.599 43.9618 203.033 43.6599C201.373 39.5847 196.795 36.8176 192.519 37.6226C186.432 37.3207 180.194 40.1383 177.528 46.0751C174.258 53.3702 184.37 58.6026 190.407 58.854C197.399 59.1558 204.694 53.1688 203.587 45.6725C203.587 45.572 203.536 45.5216 203.536 45.4208C206.102 45.3203 208.718 45.5216 211.283 45.6221C211.183 53.8229 224.614 62.3255 230.098 54.5775C232.965 50.6031 230.802 45.3707 227.079 42.9054ZM188.646 56.6404C182.508 55.4832 175.918 50.15 181.2 44.0626C183.313 41.6474 186.231 40.0879 189.35 39.5343C189.4 40.1383 189.954 40.6915 190.708 40.3396C196.141 37.9244 202.882 42.6035 201.524 48.7918C200.216 54.6279 194.179 57.6968 188.646 56.6404ZM228.639 53.0683C224.615 59.7093 209.975 51.1062 213.296 44.5153V44.4649C216.314 43.1067 219.282 42.3017 222.703 43.1568C226.878 44.2639 231.356 48.5401 228.639 53.0683Z" fill="#414141"/>
<path d="M177.462 15.9329C178.595 15.8948 179.734 15.9181 180.87 15.9286C180.905 15.6817 180.968 15.4231 180.991 15.215C181.085 14.3655 181.761 13.4294 182.12 12.6863C182.5 11.9016 182.608 11.3626 183.399 11.1627C184.456 10.8959 185.47 10.247 186.495 9.87041C187.404 9.5363 188.018 9.61264 188.997 9.82254C189.375 9.90338 189.481 9.9673 189.519 9.59121C189.581 8.9646 189.818 8.30777 190.095 7.74853C190.397 7.13917 190.826 6.34052 191.5 6.09729C192.135 5.86844 193.051 6.0255 193.695 6.0255C194.179 6.0255 194.903 6.20032 195.259 5.78619C195.835 5.11479 196.304 4.41727 196.79 3.68027C197.28 2.93829 197.949 2.42087 198.606 1.86151C198.988 1.53664 199.909 1.71793 200.359 1.71793C201.308 1.71793 202.338 1.53306 203.265 1.35099C203.802 1.24556 204.086 1 204.647 1C205.67 1 206.085 1.57364 206.865 2.22048C208.299 3.40844 209.746 4.06875 211.524 4.51785C212.237 4.69798 213.96 4.84876 214.382 5.59474C214.64 6.05088 215.227 7.0306 215.803 7.0306C216.692 7.0306 217.654 6.56126 218.535 6.42435C219.388 6.29182 220.134 6.43175 220.983 6.45626C222.343 6.49553 223.194 7.55638 223.194 8.82542C223.194 9.44964 223.051 10.0484 223.051 10.6681C223.051 11.4632 224.517 11.6243 225.049 11.7689C226.02 12.0329 227.88 11.9338 228.705 12.5507C229.359 13.0404 229.041 14.1903 229.763 14.7523C230.27 15.147 231.209 16.2535 231.863 16.3637C232.549 16.4792 233.186 16.839 233.679 17.3369C234.07 17.7315 234.127 18.1365 234.658 18.3818C235.148 18.608 235.693 18.8055 236.048 19.2354C236.666 19.9852 236.885 20.6523 236.829 21.6604C236.786 22.4498 236.269 23.1121 236.269 23.9099C236.269 24.5251 236.278 25.0774 236.411 25.6808C236.497 26.0743 236.821 26.254 236.837 26.7018C236.856 27.2161 236.837 27.7347 236.837 28.2494C236.837 28.7385 236.948 29.3184 236.695 29.749C236.245 30.5156 236.027 31.7705 235.834 32.6447C235.71 33.2111 235.558 33.6818 235.558 34.3119C235.558 34.8437 235.595 35.3948 235.527 35.9232C235.396 36.9322 235.348 38.0586 234.99 39.0183C234.769 39.6082 234.738 40.4794 234.39 40.9806C233.237 42.6379 233.614 44.1879 233.908 46.0859C233.985 46.5846 233.82 47.0109 233.995 47.5058C234.09 47.7761 234.137 47.9579 234.137 48.2397C234.137 48.8126 234.088 49.0381 233.789 49.532C233.289 50.359 232.585 51.2397 232.258 52.1484C231.779 53.4774 232.005 55.0808 232.005 56.4719C232.005 56.7612 231.974 58.6716 231.579 58.7215C231.318 58.7544 231.156 57.99 231.152 57.828C231.13 56.815 231.303 55.7015 231.073 54.709C230.942 54.1404 230.975 53.4531 230.797 52.9142C230.257 51.2785 230.3 49.8242 230.3 48.1041C230.3 47.3362 230.286 46.5665 230.3 45.7987C230.324 44.3959 230.846 43.0592 230.868 41.6667C230.875 41.2222 231.878 39.7795 231.658 39.5448C231.462 39.3358 230.614 39.4786 230.347 39.4491C229.636 39.3702 228.932 39.2213 228.231 39.0821C226.893 38.8166 225.981 35.8968 226.257 34.7825C226.429 34.087 226.443 33.3959 226.312 32.6686C226.275 32.4598 226.071 32.2568 225.965 32.0783C225.72 31.6654 225.806 31.0731 225.523 30.6983C225.281 30.3794 224.529 30.6552 224.259 30.802C223.34 31.3022 221.897 32.2708 220.809 31.839C220.258 31.6202 219.969 30.1778 219.814 29.6374C219.515 28.5916 218.569 28.8556 217.682 28.8556H210.837H207.276C206.506 28.8556 205.533 28.3819 204.812 28.1058C204.174 27.8612 202.997 26.6457 203.512 25.863C203.375 25.953 203.242 26.0535 203.099 26.1754C202.733 26.4882 202.185 26.8128 201.741 26.981C201.413 27.1053 201.006 27.373 200.707 27.5634C200.311 27.8148 199.995 27.828 199.57 27.9941C198.578 28.3811 197.527 28.5532 196.522 28.9194C196.123 29.0649 194.268 29.9298 194.201 29.1428C194.031 27.1745 191.028 24.4274 189.661 26.8454C189.026 27.9678 188.916 29.6 188.018 30.5069C187.259 31.2744 186.059 31.5312 185.048 31.7478L184.994 31.7593C184.12 31.9467 182.68 32.063 181.978 32.7324C180.943 33.7204 180.363 35.1487 180.415 36.5773C180.425 36.8526 181.101 37.2126 181.268 37.4389C181.605 37.897 182.133 38.7148 181.899 39.3214C181.662 39.9369 181.484 41.0007 181.054 41.4832C180.307 42.3218 179.969 43.3778 179.357 44.2911C179.093 44.6852 178.425 45.7452 178.425 46.2295V50.6807C178.425 51.5911 178.235 52.4766 178.283 53.4088C178.325 54.2077 178.782 55.8057 178.346 56.5597C178.107 56.9738 177.91 57.8324 177.478 58.0594C176.704 58.4661 176.293 58.5528 176.293 57.7004C176.293 55.5971 176.436 53.4822 176.436 51.3986C176.436 50.8687 176.701 50.3738 176.72 49.8511C176.737 49.3719 176.569 49.4437 176.262 49.1331C175.582 48.4467 175.768 47.8191 175.33 47.0591C174.709 45.9806 174.859 45.0698 173.806 44.2193C173.278 43.7924 172.46 43.3669 172.172 42.7116C171.905 42.1048 171.177 41.9839 171.177 41.204C171.177 40.7231 171.415 40.3754 171.461 39.9117C171.656 37.9436 172.574 35.9429 173.34 34.1364C173.77 33.124 174.118 32.4248 173.885 31.3684C173.791 30.9413 173.593 30.7122 173.593 30.2277C173.593 29.8749 173.68 29.6206 173.727 29.2864C173.776 28.9409 173.973 28.4727 174.162 28.1696C174.278 27.9836 174.719 27.6394 174.73 27.4198C174.79 26.2729 173.581 25.8269 173.277 24.6916C172.97 23.5417 173.025 22.4331 173.025 21.2456C173.025 20.1902 173.763 19.1759 173.869 18.1585C173.935 17.527 174.296 17.0515 174.904 16.8263C175.697 16.5325 176.602 15.9619 177.462 15.9329Z" fill="#333333"/>
<path d="M181.694 15.9329C180.286 15.9329 178.869 15.8855 177.462 15.9329C176.602 15.9619 175.697 16.5325 174.904 16.8263C174.296 17.0515 173.935 17.527 173.869 18.1585C173.763 19.1759 173.025 20.1902 173.025 21.2456C173.025 22.4331 172.97 23.5417 173.277 24.6916C173.581 25.8269 174.79 26.2729 174.73 27.4198C174.719 27.6394 174.278 27.9836 174.162 28.1696C173.973 28.4727 173.776 28.9409 173.727 29.2864C173.68 29.6206 173.593 29.8749 173.593 30.2277C173.593 30.7122 173.791 30.9413 173.885 31.3684C174.118 32.4248 173.77 33.124 173.34 34.1364C172.574 35.9429 171.656 37.9436 171.461 39.9117C171.415 40.3754 171.177 40.7231 171.177 41.204C171.177 41.9839 171.905 42.1048 172.172 42.7116C172.46 43.3669 173.278 43.7924 173.806 44.2193C174.859 45.0698 174.709 45.9806 175.33 47.0591C175.768 47.8192 175.582 48.4467 176.262 49.1331C176.569 49.4437 176.737 49.3719 176.72 49.8511C176.701 50.3738 176.436 50.8687 176.436 51.3986C176.436 53.4822 176.293 55.5971 176.293 57.7004C176.293 58.5528 176.704 58.4661 177.478 58.0594C177.91 57.8324 178.107 56.9738 178.346 56.5597C178.782 55.8057 178.325 54.2077 178.283 53.4088C178.235 52.4766 178.425 51.5911 178.425 50.6807C178.425 49.1969 178.425 47.7132 178.425 46.2295C178.425 45.7452 179.093 44.6852 179.357 44.2911C179.969 43.3778 180.307 42.3218 181.054 41.4832C181.484 41.0007 181.662 39.9369 181.899 39.3214C182.133 38.7148 181.605 37.897 181.268 37.4389C181.101 37.2126 180.425 36.8526 180.415 36.5773C180.363 35.1487 180.943 33.7204 181.978 32.7324C182.68 32.063 184.12 31.9467 184.994 31.7593C186.017 31.5401 187.245 31.288 188.018 30.5069C188.916 29.6 189.026 27.9678 189.661 26.8454C191.028 24.4274 194.031 27.1745 194.201 29.1428C194.268 29.9298 196.123 29.0649 196.522 28.9194C197.527 28.5532 198.578 28.3811 199.57 27.9941C199.995 27.828 200.311 27.8148 200.707 27.5634C201.006 27.373 201.413 27.1053 201.741 26.981C202.185 26.8128 202.733 26.4882 203.099 26.1754C203.42 25.9012 203.692 25.735 204.07 25.5532C204.635 25.2816 203.663 25.668 203.557 25.8004C202.933 26.5792 204.157 27.8546 204.812 28.1058C205.533 28.3819 206.506 28.8556 207.276 28.8556C208.463 28.8556 209.65 28.8556 210.837 28.8556C213.119 28.8556 215.401 28.8556 217.682 28.8556C218.569 28.8556 219.515 28.5916 219.814 29.6374C219.969 30.1778 220.258 31.6202 220.809 31.839C221.897 32.2708 223.34 31.3022 224.259 30.802C224.529 30.6552 225.281 30.3794 225.523 30.6983C225.806 31.0731 225.72 31.6654 225.965 32.0783C226.071 32.2568 226.275 32.4598 226.312 32.6686C226.443 33.3959 226.429 34.087 226.257 34.7825C225.981 35.8968 226.893 38.8166 228.231 39.0821C228.932 39.2213 229.636 39.3702 230.347 39.4491C230.614 39.4786 231.462 39.3358 231.658 39.5448C231.878 39.7795 230.875 41.2222 230.868 41.6667C230.846 43.0592 230.324 44.3959 230.3 45.7987C230.286 46.5665 230.3 47.3362 230.3 48.1041C230.3 49.8242 230.257 51.2785 230.797 52.9142C230.975 53.4531 230.942 54.1404 231.073 54.709C231.303 55.7015 231.13 56.815 231.152 57.828C231.156 57.99 231.318 58.7544 231.579 58.7215C231.974 58.6716 232.005 56.7612 232.005 56.4719C232.005 55.0808 231.779 53.4774 232.258 52.1484C232.585 51.2397 233.289 50.359 233.789 49.532C234.088 49.0381 234.137 48.8126 234.137 48.2397C234.137 47.9579 234.09 47.7761 233.995 47.5058C233.82 47.0109 233.985 46.5846 233.908 46.0859C233.614 44.1879 233.237 42.6379 234.39 40.9806C234.738 40.4794 234.769 39.6082 234.99 39.0183C235.348 38.0586 235.396 36.9322 235.527 35.9232C235.595 35.3948 235.558 34.8437 235.558 34.3119C235.558 33.6818 235.71 33.2111 235.834 32.6447C236.027 31.7705 236.245 30.5156 236.695 29.749C236.948 29.3184 236.837 28.7385 236.837 28.2494C236.837 27.7347 236.856 27.2161 236.837 26.7018C236.821 26.254 236.497 26.0743 236.411 25.6808C236.278 25.0774 236.269 24.5251 236.269 23.9099C236.269 23.1121 236.786 22.4498 236.829 21.6604C236.885 20.6523 236.666 19.9852 236.048 19.2354C235.693 18.8055 235.148 18.608 234.658 18.3818C234.127 18.1365 234.07 17.7315 233.679 17.3369C233.186 16.839 232.549 16.4792 231.863 16.3637C231.209 16.2535 230.27 15.147 229.763 14.7523C229.041 14.1903 229.359 13.0404 228.705 12.5507C227.88 11.9338 226.02 12.0329 225.049 11.7689C224.517 11.6243 223.051 11.4632 223.051 10.6681C223.051 10.0484 223.194 9.44964 223.194 8.82542C223.194 7.55638 222.343 6.49553 220.983 6.45626C220.134 6.43175 219.388 6.29182 218.535 6.42435C217.654 6.56126 216.692 7.0306 215.803 7.0306C215.227 7.0306 214.64 6.05088 214.382 5.59474C213.96 4.84876 212.237 4.69798 211.524 4.51785C209.746 4.06875 208.299 3.40844 206.865 2.22048C206.085 1.57364 205.67 1 204.647 1C204.086 1 203.802 1.24556 203.265 1.35099C202.338 1.53306 201.308 1.71793 200.359 1.71793C199.909 1.71793 198.988 1.53664 198.606 1.86151C197.949 2.42087 197.28 2.93829 196.79 3.68027C196.304 4.41727 195.835 5.11479 195.259 5.78619C194.903 6.20032 194.179 6.0255 193.695 6.0255C193.051 6.0255 192.135 5.86844 191.5 6.09729C190.826 6.34052 190.397 7.13917 190.095 7.74853C189.818 8.30777 189.581 8.9646 189.519 9.59121C189.481 9.9673 189.375 9.90338 188.997 9.82254C188.018 9.61264 187.404 9.5363 186.495 9.87041C185.47 10.247 184.456 10.8959 183.399 11.1627C182.608 11.3626 182.5 11.9016 182.12 12.6863C181.761 13.4294 181.085 14.3655 180.991 15.215C180.941 15.6686 180.698 16.3626 180.983 16.6508" stroke="#333333" stroke-linecap="square"/>
<path d="M243.075 264.678C242.371 268.25 242.119 272.979 244.886 274.136C247.753 275.293 250.671 271.42 252.432 268.099C256.306 260.804 260.179 253.509 264.103 246.264C271.649 232.076 279.346 217.536 282.817 201.688C284.225 195.248 284.678 187.752 281.056 183.425C278.792 180.708 275.371 179.802 272.051 179.199C255.601 176.23 256.607 194.997 253.79 209.587C250.218 227.95 246.647 246.314 243.075 264.678Z" fill="black"/>
<path d="M264.396 145.97C255.812 153.467 249.463 154.865 238.4 157.423C240.682 162.986 244.426 169.793 247.858 175.93C261.028 173.379 262.582 172.54 272.407 163.324C269.142 157.103 268.007 151.231 264.396 145.97Z" fill="#E5171B"/>
<path d="M279.987 182.793C270.633 189.303 266.384 191.084 255.107 192.413C256.764 198.193 252.369 201.197 255.107 207.673C268.478 206.582 271.865 211.442 282.641 203.36C284.632 185.778 282.999 188.418 279.987 182.793Z" fill="#E5171B"/>
<path d="M268.376 237.861C260.662 236.062 254.405 234.279 249.799 227.909C246.175 232.695 248.356 242.494 245.486 248.145C251.846 252.679 249.76 253.838 259.065 255.536C262.945 249.68 265.302 243.416 268.376 237.861Z" fill="#E5171B"/>
<defs>
<linearGradient id="paint0_linear_9_270" x1="109.115" y1="514.925" x2="348.069" y2="536.153" gradientUnits="userSpaceOnUse">
<stop stop-color="#4D4D4D"/>
<stop offset="1"/>
</linearGradient>
<linearGradient id="paint1_linear_9_270" x1="109.126" y1="514.922" x2="348.08" y2="536.15" gradientUnits="userSpaceOnUse">
<stop/>
<stop offset="1"/>
</linearGradient>
</defs>
</svg>
