<svg width="158" height="104" viewBox="0 0 158 104" fill="none" xmlns="http://www.w3.org/2000/svg">
<path d="M21.4548 101.367C21.4548 101.98 21.3225 102.399 20.4451 102.399H19.6823L19.7573 102.32V100.415L19.6823 100.336H20.4231C21.3181 100.336 21.4548 100.763 21.4548 101.367ZM22.3278 101.367C22.3278 100.569 22.0501 99.5816 20.4671 99.5816H18.8975V103.153H20.4892C22.0545 103.153 22.3279 102.165 22.3279 101.367H22.3278Z" fill="#E5171B"/>
<path d="M28.8082 102.399H26.5242L26.6036 102.32V101.826L26.5242 101.747H28.5966V100.988H26.5242L26.6036 100.909V100.415L26.5242 100.336H28.8082V99.5816H25.7438V103.153H28.8082V102.399Z" fill="#E5171B"/>
<path d="M35.4331 102.13C35.4331 101.636 35.0319 101.226 34.2735 101.05C34.1897 101.032 33.7797 100.931 33.7003 100.909C33.1668 100.777 32.9992 100.715 32.9992 100.578C32.9992 100.424 33.2241 100.283 33.7312 100.287C34.1236 100.287 34.5601 100.499 34.7717 100.746L35.367 100.159C34.9878 99.7712 34.4278 99.5375 33.7444 99.5375C32.7126 99.5375 32.1262 100 32.1262 100.6C32.1262 101.231 32.7391 101.469 33.374 101.623C33.4534 101.645 33.956 101.764 34.0354 101.782C34.494 101.892 34.5601 102.06 34.5601 102.13C34.5601 102.311 34.3837 102.443 33.8634 102.443C33.4534 102.443 32.9375 102.262 32.6465 101.98L32.0601 102.571C32.501 102.977 33.1139 103.197 33.7885 103.197C34.9128 103.197 35.4331 102.695 35.4331 102.13H35.4331Z" fill="#E5171B"/>
<path d="M41.8717 102.399H39.5877L39.667 102.32V101.826L39.5877 101.747H41.66V100.988H39.5877L39.667 100.909V100.415L39.5877 100.336H41.8717V99.5816H38.8073V103.153H41.8717V102.399Z" fill="#E5171B"/>
<path d="M48.7411 99.5816H47.8813V101.769H47.8725L47.5947 101.354L46.0779 99.5816H45.368V103.153H46.2278V100.944H46.2367L46.5409 101.394L48.0312 103.153H48.7411V99.5816Z" fill="#E5171B"/>
<path d="M55.2219 99.5816L54.2562 101.72L54.1416 102.077H54.1328L54.0093 101.72L53.0481 99.5816H52.0957L53.7624 103.153H54.4987L56.1654 99.5816H55.2219Z" fill="#E5171B"/>
<path d="M62.3005 101.385C62.3005 102.016 62.0095 102.439 61.282 102.439C60.5588 102.439 60.259 102.016 60.259 101.385C60.259 100.741 60.5589 100.296 61.282 100.296C62.0051 100.296 62.3005 100.754 62.3005 101.385ZM63.1735 101.385C63.1735 100.331 62.5254 99.5375 61.2776 99.5375C60.0386 99.5375 59.386 100.336 59.386 101.385C59.386 102.448 60.0386 103.197 61.2776 103.197C62.4989 103.197 63.1735 102.448 63.1735 101.385Z" fill="#E5171B"/>
<path d="M69.4756 102.399H67.4033L67.4782 102.32V99.5816H66.6184V103.153H69.4756L69.4756 102.399Z" fill="#E5171B"/>
<path d="M75.0311 99.5816L74.0654 101.72L73.9508 102.077H73.942L73.8185 101.72L72.8573 99.5816H71.9049L73.5716 103.153H74.3079L75.9746 99.5816H75.0311Z" fill="#E5171B"/>
<path d="M79.7337 99.5816H78.8739V103.153H79.7337V99.5816Z" fill="#E5171B"/>
<path d="M87.0139 99.5816H86.2996L85.1708 101.482L85.043 101.795H85.0342L84.8975 101.482L83.7731 99.5816H83.0676V103.158H83.9274V101.262H83.9362L84.1082 101.636L85.0342 103.202H85.0474L85.9733 101.636L86.1453 101.262H86.1541V103.158H87.0139V99.5816Z" fill="#E5171B"/>
<path d="M93.8078 102.399H91.5238L91.6032 102.32V101.826L91.5238 101.747H93.5962V100.988H91.5238L91.6032 100.909V100.415L91.5238 100.336H93.8078V99.5816H90.7434V103.153H93.8078V102.399Z" fill="#E5171B"/>
<path d="M100.677 99.5816H99.8175V101.769H99.8087L99.5309 101.354L98.0141 99.5816H97.3043V103.153H98.1641V100.944H98.1729L98.4771 101.394L99.9674 103.153H100.677V99.5816Z" fill="#E5171B"/>
<path d="M107.248 99.5816H103.919V100.336H105.198L105.154 100.415V103.153H106.014V100.415L105.97 100.336H107.248V99.5816Z" fill="#E5171B"/>
<path d="M113.271 101.385C113.271 102.016 112.98 102.439 112.252 102.439C111.529 102.439 111.229 102.016 111.229 101.385C111.229 100.741 111.529 100.296 112.252 100.296C112.975 100.296 113.271 100.754 113.271 101.385ZM114.144 101.385C114.144 100.331 113.496 99.5375 112.248 99.5375C111.009 99.5375 110.356 100.336 110.356 101.385C110.356 102.448 111.009 103.197 112.248 103.197C113.469 103.197 114.144 102.448 114.144 101.385Z" fill="#E5171B"/>
<path d="M124.812 99.5816L124.274 101.451L124.199 101.839H124.19L124.102 101.451L123.564 99.5816H122.916L122.378 101.451L122.299 101.848H122.29L122.202 101.451L121.673 99.5816H120.764L121.836 103.153H122.7L123.141 101.614L123.225 101.209H123.233L123.308 101.614L123.754 103.153H124.64L125.711 99.5816H124.812Z" fill="#E5171B"/>
<path d="M132.301 102.399H130.017L130.097 102.32V101.826L130.017 101.747H132.09V100.988H130.017L130.097 100.909V100.415L130.017 100.336H132.301V99.5816H129.237V103.153H132.301V102.399Z" fill="#E5171B"/>
<path d="M138.23 102.029C138.23 102.227 138.15 102.399 137.683 102.399H136.567L136.647 102.32V101.733L136.563 101.654H137.678C138.124 101.654 138.23 101.844 138.23 102.029ZM138.075 100.657C138.075 100.821 138.009 100.988 137.599 100.988H136.567L136.647 100.909V100.415L136.567 100.336H137.599C137.987 100.336 138.075 100.486 138.075 100.657ZM139.103 102.051C139.103 101.658 138.891 101.403 138.618 101.297C138.834 101.16 138.948 100.9 138.948 100.635C138.948 100.067 138.498 99.5816 137.643 99.5816H135.787V103.153H137.683C138.556 103.153 139.103 102.747 139.103 102.051Z" fill="#E5171B"/>
<path d="M1.32051 73.773L9.02564 87.1063L16.7179 73.773H18.0385L17.9872 73.8627V94.2858H16.8333V75.8627L9.02564 89.3756L1.20513 75.8627V94.2858H0.0512838V73.8627L0 73.773H1.32051Z" fill="#EFC329"/>
<path d="M28.1538 80.555C30.1025 80.555 31.7628 81.243 33.1346 82.6191C34.5064 83.9952 35.1923 85.6576 35.1923 87.6063C35.1923 89.5464 34.5064 91.2046 33.1346 92.5806C31.7628 93.9567 30.1025 94.6447 28.1538 94.6447C26.2136 94.6447 24.5555 93.9567 23.1795 92.5806C21.8034 91.2046 21.1154 89.5464 21.1154 87.6063C21.1154 85.6576 21.8034 83.9952 23.1795 82.6191C24.5555 81.243 26.2136 80.555 28.1538 80.555ZM28.1538 81.7858C26.547 81.7858 25.1752 82.3541 24.0384 83.4909C22.9017 84.6276 22.3333 85.9994 22.3333 87.6063C22.3333 89.2131 22.9017 90.5828 24.0384 91.7152C25.1752 92.8477 26.547 93.414 28.1538 93.414C29.7607 93.414 31.1324 92.8477 32.2692 91.7152C33.406 90.5828 33.9743 89.2131 33.9743 87.6063C33.9743 85.9994 33.406 84.6276 32.2692 83.4909C31.1324 82.3541 29.7607 81.7858 28.1538 81.7858Z" fill="#EFC329"/>
<path d="M39.6795 81.696V94.2858H38.5257V81.696H39.6795ZM39.1026 77.2345C39.4188 77.2345 39.6902 77.3456 39.9167 77.5678C40.1432 77.7901 40.2564 78.0593 40.2564 78.3755C40.2564 78.7003 40.1432 78.9738 39.9167 79.196C39.6902 79.4183 39.4188 79.5294 39.1026 79.5294C38.7863 79.5294 38.515 79.4183 38.2885 79.196C38.062 78.9738 37.9487 78.7003 37.9487 78.3755C37.9487 78.0593 38.062 77.79 38.2885 77.5678C38.515 77.3456 38.7863 77.2345 39.1026 77.2345Z" fill="#EFC329"/>
<path d="M47.2436 87.8114C46.2607 87.2815 45.5812 86.8285 45.2052 86.4524C44.6154 85.8627 44.3205 85.1533 44.3205 84.3242C44.3205 83.4866 44.6154 82.7708 45.2052 82.1768C45.7949 81.5828 46.5043 81.2858 47.3334 81.2858C48.171 81.2858 48.8633 81.5593 49.4103 82.1063C49.9402 82.6447 50.2052 83.2559 50.2052 83.9396V84.0037L49.2052 84.4012C49.1197 83.7516 48.9167 83.2644 48.5962 82.9396C48.2757 82.6148 47.8547 82.4524 47.3334 82.4524C46.8205 82.4524 46.3804 82.6341 46.0129 82.9973C45.6453 83.3606 45.4616 83.8029 45.4616 84.3242C45.4616 84.837 45.6453 85.2772 46.0129 85.6447C46.2265 85.8584 46.6795 86.1832 47.3718 86.6191C48.4659 87.2174 49.2436 87.7473 49.7052 88.2088C50.4317 88.9439 50.7949 89.82 50.7949 90.8371C50.7949 91.8798 50.4317 92.7665 49.7052 93.4973C48.9787 94.2281 48.0983 94.5935 47.0641 94.5935C46.03 94.5935 45.1496 94.2281 44.4231 93.4973C43.6966 92.7665 43.3334 91.9653 43.3334 91.0935L44.4744 90.7986C44.4744 91.5507 44.7287 92.1789 45.2372 92.6832C45.7458 93.1875 46.3547 93.4396 47.0641 93.4396C47.7735 93.4396 48.3825 93.1875 48.8911 92.6832C49.3996 92.1789 49.6539 91.5635 49.6539 90.8371C49.6539 90.1276 49.4017 89.5208 48.8975 89.0165C48.624 88.743 48.0727 88.3413 47.2436 87.8114H47.2436Z" fill="#EFC329"/>
<path d="M56.4615 91.9268C57.5469 92.9182 58.8375 93.414 60.3333 93.414C61.9401 93.414 63.3119 92.8456 64.4486 91.7088C64.5939 91.5635 64.7307 91.414 64.8589 91.2601L66.0768 91.696C65.8546 92.0037 65.6025 92.2986 65.3204 92.5806C63.9444 93.9567 62.282 94.6447 60.3333 94.6447C58.3931 94.6447 56.735 93.9567 55.3589 92.5806C53.9828 91.2046 53.2948 89.5422 53.2948 87.5935C53.2948 85.6533 53.9828 83.9952 55.3589 82.6191C56.735 81.243 58.3931 80.555 60.3333 80.555C61.9999 80.555 63.4572 81.055 64.7051 82.055C64.9102 82.2259 65.1153 82.414 65.3204 82.6191C65.3974 82.696 65.47 82.773 65.5384 82.8499L64.6666 83.7217L56.4615 91.9268ZM63.8204 82.9396C62.8204 82.1704 61.658 81.7858 60.3333 81.7858C58.735 81.7858 57.3675 82.352 56.2307 83.4845C55.0939 84.617 54.5256 85.9866 54.5256 87.5935C54.5256 88.9182 54.9102 90.0806 55.6794 91.0806L63.8204 82.9396ZM62.4999 76.5037L59.3589 78.9012H58.282L60.3717 76.5037H62.4999Z" fill="#EFC329"/>
<path d="M72.6153 87.8114C71.6324 87.2815 70.9529 86.8285 70.5769 86.4524C69.9871 85.8627 69.6923 85.1533 69.6923 84.3242C69.6923 83.4866 69.9871 82.7708 70.5769 82.1768C71.1666 81.5828 71.876 81.2858 72.7051 81.2858C73.5427 81.2858 74.235 81.5593 74.782 82.1063C75.3119 82.6447 75.5769 83.2559 75.5769 83.9396V84.0037L74.5769 84.4012C74.4914 83.7516 74.2884 83.2644 73.9679 82.9396C73.6474 82.6148 73.2264 82.4524 72.7051 82.4524C72.1923 82.4524 71.7521 82.6341 71.3846 82.9973C71.017 83.3606 70.8333 83.8029 70.8333 84.3242C70.8333 84.837 71.017 85.2772 71.3846 85.6447C71.5982 85.8584 72.0512 86.1832 72.7435 86.6191C73.8376 87.2174 74.6153 87.7473 75.0769 88.2088C75.8034 88.9439 76.1666 89.82 76.1666 90.8371C76.1666 91.8798 75.8034 92.7665 75.0769 93.4973C74.3504 94.2281 73.47 94.5935 72.4358 94.5935C71.4017 94.5935 70.5213 94.2281 69.7948 93.4973C69.0683 92.7665 68.7051 91.9653 68.7051 91.0935L69.8461 90.7986C69.8461 91.5507 70.1004 92.1789 70.6089 92.6832C71.1175 93.1875 71.7264 93.4396 72.4358 93.4396C73.1453 93.4396 73.7542 93.1875 74.2628 92.6832C74.7713 92.1789 75.0256 91.5635 75.0256 90.8371C75.0256 90.1276 74.7734 89.5208 74.2692 89.0165C73.9957 88.743 73.4444 88.3413 72.6153 87.8114H72.6153Z" fill="#EFC329"/>
<path d="M104.885 91.0165L105.756 91.7986C103.756 93.6191 101.402 94.5294 98.6923 94.5294C95.7863 94.5294 93.3098 93.5059 91.2628 91.4588C89.2158 89.4118 88.1923 86.9354 88.1923 84.0294C88.1923 81.1319 89.2158 78.6576 91.2628 76.6063C93.3098 74.555 95.7863 73.5294 98.6923 73.5294C101.402 73.5294 103.756 74.4396 105.756 76.2601L104.885 77.055C103.124 75.4909 101.06 74.7088 98.6923 74.7088C96.1197 74.7088 93.9231 75.6191 92.1026 77.4396C90.2821 79.2601 89.3718 81.4567 89.3718 84.0294C89.3718 86.6106 90.2821 88.8114 92.1026 90.6319C93.9231 92.4524 96.1197 93.3627 98.6923 93.3627C101.06 93.3627 103.124 92.5806 104.885 91.0165Z" fill="#E5171B"/>
<path d="M115.231 80.555C117.179 80.555 118.84 81.243 120.212 82.6191C121.583 83.9952 122.269 85.6576 122.269 87.6063C122.269 89.5464 121.583 91.2046 120.212 92.5806C118.84 93.9567 117.179 94.6447 115.231 94.6447C113.291 94.6447 111.632 93.9567 110.256 92.5806C108.88 91.2046 108.192 89.5464 108.192 87.6063C108.192 85.6576 108.88 83.9952 110.256 82.6191C111.632 81.243 113.291 80.555 115.231 80.555ZM115.231 81.7858C113.624 81.7858 112.252 82.3541 111.115 83.4909C109.979 84.6276 109.41 85.9994 109.41 87.6063C109.41 89.2131 109.979 90.5828 111.115 91.7152C112.252 92.8477 113.624 93.414 115.231 93.414C116.838 93.414 118.209 92.8477 119.346 91.7152C120.483 90.5828 121.051 89.2131 121.051 87.6063C121.051 85.9994 120.483 84.6276 119.346 83.4909C118.209 82.3541 116.838 81.7858 115.231 81.7858Z" fill="#E5171B"/>
<path d="M128.808 87.8114C127.825 87.2815 127.145 86.8285 126.769 86.4524C126.179 85.8627 125.885 85.1533 125.885 84.3242C125.885 83.4866 126.179 82.7708 126.769 82.1768C127.359 81.5828 128.068 81.2858 128.897 81.2858C129.735 81.2858 130.427 81.5593 130.974 82.1063C131.504 82.6447 131.769 83.2559 131.769 83.9396V84.0037L130.769 84.4012C130.684 83.7516 130.481 83.2644 130.16 82.9396C129.84 82.6148 129.419 82.4524 128.897 82.4524C128.385 82.4524 127.944 82.6341 127.577 82.9973C127.209 83.3606 127.026 83.8029 127.026 84.3242C127.026 84.837 127.209 85.2772 127.577 85.6447C127.791 85.8584 128.244 86.1832 128.936 86.6191C130.03 87.2174 130.808 87.7473 131.269 88.2088C131.996 88.9439 132.359 89.82 132.359 90.8371C132.359 91.8798 131.996 92.7665 131.269 93.4973C130.543 94.2281 129.662 94.5935 128.628 94.5935C127.594 94.5935 126.714 94.2281 125.987 93.4973C125.261 92.7665 124.897 91.9653 124.897 91.0935L126.038 90.7986C126.038 91.5507 126.293 92.1789 126.801 92.6832C127.31 93.1875 127.919 93.4396 128.628 93.4396C129.338 93.4396 129.947 93.1875 130.455 92.6832C130.964 92.1789 131.218 91.5635 131.218 90.8371C131.218 90.1276 130.966 89.5208 130.462 89.0165C130.188 88.743 129.637 88.3413 128.808 87.8114Z" fill="#E5171B"/>
<path d="M137.615 81.696V76.337H138.769V81.696H141.333V82.8499H138.769V94.2857H137.615V82.8499H135.051V81.696H137.615Z" fill="#E5171B"/>
<path d="M158 94.2858H156.846V91.7217C156.624 92.0208 156.38 92.3071 156.115 92.5806C154.739 93.9567 153.077 94.6447 151.128 94.6447C149.188 94.6447 147.53 93.9567 146.154 92.5806C144.778 91.2046 144.09 89.5464 144.09 87.6063C144.09 85.6576 144.778 83.9952 146.154 82.6191C147.53 81.243 149.188 80.555 151.128 80.555C153.077 80.555 154.739 81.243 156.115 82.6191C156.38 82.8926 156.624 83.1789 156.846 83.4781V81.696H158V94.2858ZM156.846 88.7473V86.4652C156.632 85.337 156.098 84.3456 155.244 83.4909C154.107 82.3541 152.735 81.7858 151.128 81.7858C149.521 81.7858 148.15 82.3541 147.013 83.4909C145.876 84.6276 145.308 85.9994 145.308 87.6063C145.308 89.2131 145.876 90.5828 147.013 91.7152C148.15 92.8477 149.521 93.414 151.128 93.414C152.735 93.414 154.107 92.8456 155.244 91.7088C156.098 90.8541 156.632 89.867 156.846 88.7473V88.7473Z" fill="#E5171B"/>
<path fill-rule="evenodd" clip-rule="evenodd" d="M81.3353 52.1104L82.6029 55.7134C83.1366 57.181 84.3376 58.382 85.739 58.9157C82.8699 59.8501 79.7339 60.3837 76.5312 60.3837C59.8504 60.3837 46.306 46.8389 46.306 30.2252C46.306 13.5448 59.9175 0 76.5312 0C93.2116 0 106.756 13.5448 106.756 30.2252C106.756 30.9592 106.756 31.6932 106.69 32.3602C106.556 32.2935 106.356 32.2269 106.223 32.1602L95.4803 28.4239H103.02C102.686 23.2195 100.818 18.4821 97.949 14.5454C97.8823 14.6121 97.749 14.6121 97.682 14.6787C95.1466 16.0135 92.4109 17.1478 89.5419 17.9485C90.276 20.8175 90.8096 23.8198 91.01 26.8892L87.2066 25.5549C86.94 23.2195 86.5396 20.9508 85.9389 18.8158C82.9366 19.4161 79.7339 19.7498 76.5312 19.7498C73.2619 19.7498 70.1258 19.4161 67.1231 18.8158C66.2558 21.8848 65.7888 25.0875 65.6555 28.4239H73.5956C73.5956 29.0908 73.7289 29.7582 73.9288 30.3585L74.5295 32.0936H65.7888C65.9221 35.4962 66.4562 38.6989 67.2568 41.7016C70.2591 41.1009 73.3952 40.7672 76.6645 40.7672H77.5318L78.7995 44.504C78.0659 44.4369 77.3319 44.4369 76.5979 44.4369C73.7289 44.4369 70.9932 44.7039 68.3241 45.2376C69.8588 49.508 72.1275 53.3114 74.8632 56.447C74.9299 56.5807 75.0632 56.6474 75.1298 56.7807H76.5312C76.9982 56.7807 77.4652 56.714 77.9322 56.714C77.9993 56.5807 78.1326 56.5137 78.1992 56.3804C79.3336 55.046 80.4008 53.6447 81.3352 52.1104L81.3353 52.1104ZM76.5312 3.73633C76.0642 3.73633 75.5972 3.80298 75.1298 3.80298C74.9965 3.87006 74.9299 4.00337 74.7295 4.13667C71.9942 7.27271 69.7922 11.0761 68.1908 15.3461C70.8599 15.8797 73.5956 16.1468 76.4646 16.1468C79.3336 16.1468 82.0693 15.8797 84.7379 15.3461C83.2032 11.0761 80.9349 7.27271 78.1992 4.13667C78.1326 4.00337 77.9993 3.87006 77.9322 3.80298C77.4652 3.73633 76.9982 3.73633 76.5312 3.73633ZM69.7922 4.60366C65.1214 5.80466 60.9181 8.34042 57.5821 11.7431C57.6488 11.8097 57.7821 11.8097 57.8487 11.8768C59.9841 12.9441 62.2524 13.8114 64.6544 14.4788C65.9221 11.009 67.5234 7.80635 69.5251 5.00399C69.5922 4.87069 69.7255 4.73738 69.7921 4.60365L69.7922 4.60366ZM95.1466 11.8097C95.2133 11.8097 95.347 11.7431 95.4137 11.6764C92.0777 8.34042 87.9406 5.80467 83.2032 4.60366C83.2703 4.73739 83.4036 4.87069 83.4702 5.004C85.4719 7.80635 87.0733 10.9424 88.3409 14.4121C90.7429 13.7447 93.0117 12.8774 95.1466 11.8097L95.1466 11.8097ZM55.4467 14.6791C55.38 14.6121 55.2467 14.6121 55.1801 14.5454C52.3111 18.4821 50.4427 23.2195 50.109 28.4239H62.0525C62.1191 24.7542 62.7198 21.2845 63.5872 17.9485C60.7182 17.0807 57.9824 16.0135 55.4467 14.6791H55.4467ZM62.0525 32.0936H50.109C50.4427 37.2313 52.3111 41.9682 55.1801 45.905C55.2467 45.8383 55.3134 45.7717 55.4467 45.8383C57.9824 44.504 60.7181 43.3696 63.5871 42.569C62.7198 39.233 62.1858 35.6966 62.0524 32.0936H62.0525ZM57.8487 48.6407C57.7821 48.7073 57.6488 48.7073 57.5821 48.774C60.9181 52.1104 65.1218 54.5791 69.7922 55.9134C69.7255 55.7801 69.5922 55.6463 69.5251 55.513C67.5234 52.644 65.9221 49.508 64.6544 46.0383C62.2524 46.7056 59.9841 47.5729 57.8487 48.6407L57.8487 48.6407Z" fill="#EFC329"/>
<path fill-rule="evenodd" clip-rule="evenodd" d="M98.883 41.5679L111.293 53.9784C111.827 54.5124 111.827 55.3127 111.293 55.7801L106.289 60.7841C105.822 61.3177 105.022 61.3177 104.488 60.7841L92.0777 48.3736L89.0083 54.4453C88.4747 55.513 87.0066 55.3797 86.6063 54.312L77.7989 28.9575C77.4652 27.8898 78.4663 26.9559 79.4669 27.2895L104.821 36.0969C105.889 36.4973 105.956 37.9649 104.955 38.499L98.883 41.5679Z" fill="#E5171B"/>
</svg>
